<svg
  width="173"
  height="37"
  viewBox="0 0 173 37"
  [attr.fill]="fill"
  xmlns="http://www.w3.org/2000/svg"
>
  <path
    fill-rule="evenodd"
    clip-rule="evenodd"
    d="M31.6355 7.6535C38.7882 14.8061 38.7882 26.4028 31.6355 33.5555C31.3183 33.8726 30.9924 34.1758 30.6585 34.4648L27.7394 31.0596C27.9869 30.8448 28.2286 30.6197 28.4639 30.3844C33.8652 24.9831 33.8652 16.2258 28.4639 10.8245C23.0626 5.42321 14.3053 5.42321 8.90401 10.8245C3.50269 16.2258 3.50269 24.9831 8.904 30.3844C9.14112 30.6215 9.3847 30.8482 9.63419 31.0645L6.71553 34.4691C6.37991 34.1788 6.05233 33.8742 5.73358 33.5554C-1.41905 26.4028 -1.41905 14.8061 5.73358 7.6535C12.8862 0.500872 24.4829 0.500875 31.6355 7.6535Z"
    [attr.fill]="fill"
  />
  <path
    fill-rule="evenodd"
    clip-rule="evenodd"
    d="M24.1256 26.8464L27.7854 31.1155C25.3265 33.1782 22.1321 34.4242 18.6407 34.4242C15.1755 34.4242 12.003 33.1969 9.55165 31.162L13.1644 26.9478C11.3352 25.4245 10.1733 23.1451 10.1733 20.5977C10.1733 16.0114 13.9395 12.2935 18.5853 12.2935C23.2311 12.2935 26.9973 16.0114 26.9973 20.5977C26.9973 23.0892 25.8858 25.3244 24.1256 26.8464Z"
    [attr.fill]="fill"
  />
  <mask
    id="mask0_1560_49986"
    style="mask-type: alpha"
    maskUnits="userSpaceOnUse"
    x="46"
    y="8"
    width="21"
    height="21"
  >
    <path d="M46.1309 8.36311H66.3523V28.6002H46.1309V8.36311Z" fill="black" />
  </mask>
  <g mask="url(#mask0_1560_49986)">
    <path
      fill-rule="evenodd"
      clip-rule="evenodd"
      d="M56.9787 8.36311C57.9615 8.36311 58.9109 8.48487 59.8265 8.72789C60.7421 8.9709 61.6007 9.31514 62.4026 9.75986C63.2043 10.2048 63.9414 10.7351 64.614 11.3505C65.2866 11.9661 65.8609 12.6414 66.3367 13.3758L63.7916 14.7726C63.4397 14.2552 63.0234 13.7792 62.5422 13.3448C62.0613 12.9103 61.5259 12.5377 60.9362 12.2275C60.3463 11.917 59.7179 11.6791 59.0505 11.5136C58.3833 11.348 57.6926 11.2652 56.9787 11.2652C55.8819 11.2652 54.8527 11.4568 53.8904 11.8395C52.9283 12.2223 52.0848 12.7394 51.3607 13.3912C50.6365 14.043 50.0649 14.809 49.6458 15.6882C49.2268 16.5676 49.0175 17.504 49.0175 18.4971C49.0175 19.4801 49.2268 20.4114 49.6458 21.2906C50.0649 22.17 50.6365 22.9355 51.3607 23.5875C52.0848 24.2393 52.9283 24.7566 53.8904 25.1395C54.8527 25.5224 55.8819 25.7136 56.9787 25.7136C57.7026 25.7136 58.4011 25.6282 59.0737 25.4576C59.7463 25.2867 60.3749 25.0439 60.9594 24.728C61.5437 24.4126 62.0767 24.0374 62.5579 23.6029C63.039 23.1685 63.4554 22.6873 63.8072 22.1597L66.3523 23.5408C65.8868 24.2963 65.3225 24.9842 64.6607 25.605C63.9984 26.2257 63.264 26.7587 62.4569 27.2034C61.6499 27.6484 60.7834 27.9926 59.8575 28.2354C58.9314 28.4787 57.9718 28.6002 56.9787 28.6002C53.9781 28.6002 51.4174 27.6122 49.2967 25.636C47.1861 23.6701 46.1309 21.2906 46.1309 18.4971C46.1309 15.7246 47.1861 13.3396 49.2967 11.3429C51.3968 9.35621 53.9576 8.36311 56.9787 8.36311Z"
      [attr.fill]="fill"
    />
  </g>
  <mask
    id="mask1_1560_49986"
    style="mask-type: alpha"
    maskUnits="userSpaceOnUse"
    x="68"
    y="8"
    width="21"
    height="21"
  >
    <path
      d="M68.0098 8.36305H88.2466V28.6001H68.0098V8.36305Z"
      fill="#2F54EB"
    />
  </mask>
  <g mask="url(#mask1_1560_49986)">
    <path
      fill-rule="evenodd"
      clip-rule="evenodd"
      d="M79.5715 20.7318V28.6001H76.6849V20.7318L68.0098 8.36299H71.5482L78.1437 17.7676L84.6928 8.36299H88.2466L79.5715 20.7318Z"
      [attr.fill]="fill"
    />
  </g>
  <mask
    id="mask2_1560_49986"
    style="mask-type: alpha"
    maskUnits="userSpaceOnUse"
    x="92"
    y="8"
    width="21"
    height="21"
  >
    <path
      d="M92.0837 8.36306H112.321V28.6001H92.0837V8.36306Z"
      fill="#2F54EB"
    />
  </mask>
  <g mask="url(#mask2_1560_49986)">
    <path
      fill-rule="evenodd"
      clip-rule="evenodd"
      d="M106.532 19.9248H94.9704V25.7135H106.532C106.925 25.7135 107.298 25.636 107.649 25.4807C108.001 25.3255 108.306 25.1162 108.565 24.8522C108.824 24.5886 109.031 24.2806 109.186 23.9287C109.341 23.5772 109.419 23.2048 109.419 22.8114C109.419 22.4183 109.341 22.0486 109.186 21.7017C109.031 21.3553 108.821 21.0499 108.557 20.7861C108.293 20.5223 107.988 20.3128 107.642 20.1575C107.295 20.0023 106.925 19.9248 106.532 19.9248ZM94.9704 11.2651V17.0382H106.532C106.925 17.0382 107.298 16.9606 107.649 16.8054C108.001 16.6502 108.306 16.4433 108.565 16.1847C108.824 15.9262 109.031 15.6209 109.186 15.2691C109.341 14.9175 109.419 14.5451 109.419 14.1518C109.419 13.7586 109.341 13.389 109.186 13.042C109.031 12.6956 108.821 12.3902 108.557 12.1264C108.293 11.8626 107.988 11.6531 107.642 11.4979C107.295 11.3426 106.925 11.2651 106.532 11.2651H94.9704ZM92.0837 8.36306H106.532C107.318 8.36306 108.061 8.51586 108.759 8.82098C109.458 9.1261 110.073 9.54514 110.606 10.0779C111.139 10.6109 111.558 11.2262 111.863 11.9247C112.168 12.623 112.321 13.3655 112.321 14.1518C112.321 15.8693 111.664 17.3176 110.35 18.497C111.664 19.6664 112.321 21.1042 112.321 22.8114C112.321 23.608 112.168 24.3554 111.863 25.0541C111.558 25.7521 111.144 26.3653 110.621 26.8929C110.099 27.4207 109.483 27.8373 108.775 28.1422C108.066 28.4476 107.318 28.6001 106.532 28.6001H92.0837V8.36306Z"
      [attr.fill]="fill"
    />
  </g>
  <mask
    id="mask3_1560_49986"
    style="mask-type: alpha"
    maskUnits="userSpaceOnUse"
    x="118"
    y="8"
    width="21"
    height="21"
  >
    <path
      d="M118.094 8.36307H138.331V28.6001H118.094V8.36307Z"
      fill="#2F54EB"
    />
  </mask>
  <g mask="url(#mask3_1560_49986)">
    <path
      fill-rule="evenodd"
      clip-rule="evenodd"
      d="M120.981 11.2651V17.0382H132.543C132.936 17.0382 133.308 16.9607 133.66 16.8054C134.012 16.6502 134.317 16.4433 134.576 16.1847C134.834 15.9262 135.041 15.6209 135.197 15.2691C135.352 14.9175 135.429 14.5451 135.429 14.1518C135.429 13.7586 135.352 13.389 135.197 13.042C135.041 12.6956 134.832 12.3902 134.568 12.1264C134.304 11.8626 133.999 11.6531 133.652 11.4979C133.305 11.3426 132.936 11.2651 132.543 11.2651H120.981ZM118.094 8.36307H132.543C133.329 8.36307 134.071 8.51588 134.769 8.82075C135.468 9.12611 136.083 9.54516 136.616 10.0779C137.149 10.6109 137.568 11.2262 137.873 11.9247C138.179 12.623 138.331 13.3655 138.331 14.1518C138.331 14.938 138.179 15.6857 137.873 16.3942C137.568 17.103 137.149 17.7159 136.616 18.2332C136.083 18.7508 135.468 19.162 134.769 19.4669C134.071 19.7723 133.329 19.9248 132.543 19.9248H131.844L138.331 28.6002H134.7L128.228 19.9248H120.981V28.6002H118.094V8.36307Z"
      [attr.fill]="fill"
    />
  </g>
  <mask
    id="mask4_1560_49986"
    style="mask-type: alpha"
    maskUnits="userSpaceOnUse"
    x="40"
    y="8"
    width="133"
    height="21"
  >
    <path d="M40.0632 28.6001H173V8.36305H40.0632V28.6001Z" fill="#2F54EB" />
  </mask>
  <g mask="url(#mask4_1560_49986)">
    <path
      fill-rule="evenodd"
      clip-rule="evenodd"
      d="M144.104 28.6001H146.991V8.36304H144.104V28.6001Z"
      [attr.fill]="fill"
    />
    <path
      fill-rule="evenodd"
      clip-rule="evenodd"
      d="M162.898 25.7136C163.87 25.7136 164.796 25.5224 165.676 25.1393C166.555 24.7566 167.321 24.2366 167.973 23.5794C168.624 22.9225 169.142 22.1573 169.524 21.2827C169.907 20.4085 170.099 19.4802 170.099 18.4971C170.099 17.5142 169.907 16.583 169.524 15.7036C169.142 14.8244 168.624 14.0562 167.973 13.3991C167.321 12.7421 166.555 12.2221 165.676 11.8392C164.796 11.4569 163.87 11.2652 162.898 11.2652H155.65V25.7136H162.898ZM152.764 8.36314H162.898C165.671 8.36314 168.045 9.35624 170.021 11.3427C172.008 13.3191 173.001 15.7036 173.001 18.4971C173.001 21.2906 172.008 23.6701 170.021 25.6361C168.055 27.6122 165.681 28.6002 162.898 28.6002H152.764V8.36314Z"
      [attr.fill]="fill"
    />
  </g>
</svg>
